<?xml version="1.0" encoding="UTF-8"?>
<svg xmlns="http://www.w3.org/2000/svg" xmlns:xlink="http://www.w3.org/1999/xlink" width="150px" height="150px" viewBox="0 0 16 16" version="1.1">
<g id="surface1">
<path style=" stroke:none;fill-rule:nonzero;fill:rgb(13.725491%,12.156863%,12.54902%);fill-opacity:1;" d="M 14.730469 5.070312 C 14.449219 4.707031 14.011719 4.496094 13.550781 4.5 L 5.109375 4.5 L 4.378906 3.175781 C 4.140625 2.753906 3.691406 2.496094 3.203125 2.5 L 1.5 2.5 C 1.222656 2.5 1 2.722656 1 3 C 1 3.277344 1.222656 3.5 1.5 3.5 L 3.203125 3.5 C 3.324219 3.496094 3.441406 3.554688 3.503906 3.65625 L 4.328125 5.15625 L 4.761719 9.816406 C 4.878906 10.816406 5.753906 11.554688 6.761719 11.503906 L 11.945312 11.503906 C 12.828125 11.527344 13.613281 10.957031 13.871094 10.113281 L 14.953125 6.203125 C 15.0625 5.8125 14.980469 5.390625 14.730469 5.070312 Z M 14 5.929688 L 12.914062 9.84375 C 12.777344 10.257812 12.378906 10.523438 11.945312 10.5 L 6.738281 10.5 C 6.253906 10.535156 5.824219 10.199219 5.738281 9.71875 L 5.363281 5.5 L 13.550781 5.5 C 13.699219 5.5 13.839844 5.5625 13.933594 5.675781 C 13.996094 5.746094 14.019531 5.839844 14 5.929688 Z M 14 5.929688 "/>
<path style=" stroke:none;fill-rule:nonzero;fill:rgb(13.725491%,12.156863%,12.54902%);fill-opacity:1;" d="M 8 13 C 8 12.449219 7.550781 12 7 12 C 6.449219 12 6 12.449219 6 13 C 6 13.550781 6.449219 14 7 14 C 7.550781 14 8 13.550781 8 13 Z M 8 13 "/>
<path style=" stroke:none;fill-rule:nonzero;fill:rgb(13.725491%,12.156863%,12.54902%);fill-opacity:1;" d="M 13 13 C 13 12.449219 12.550781 12 12 12 C 11.449219 12 11 12.449219 11 13 C 11 13.550781 11.449219 14 12 14 C 12.550781 14 13 13.550781 13 13 Z M 13 13 "/>
</g>
</svg>
